# Blender v3.1.2 OBJ File: 'rifle.blend'
# www.blender.org
mtllib rifle.mtl
o Gun_Cube
v 0.279660 1.049020 -0.355452
v 0.279660 -0.937132 -0.590400
v 0.279660 0.937132 0.590400
v 0.279660 -1.049020 0.355452
v -0.375661 1.049020 -0.355452
v -0.375661 -0.937132 -0.590400
v -0.375661 0.937132 0.590400
v -0.375661 -1.049020 0.355452
v -0.424334 -1.204613 -0.689533
v -0.424334 -1.332248 0.389440
v 0.328333 -1.204613 -0.689533
v 0.328333 -1.332248 0.389440
v 0.519661 2.023936 0.718962
v -0.519661 2.023936 0.718962
v 0.519661 2.135824 -0.226890
v -0.519661 2.135824 -0.226890
v -0.221035 1.670920 -3.070665
v 0.221035 1.670920 -3.070665
v -0.221035 2.164607 -3.012265
v 0.221035 2.164607 -3.012265
v -0.519661 1.374361 -3.105745
v 0.519661 1.374361 -3.105745
v -0.519661 2.461165 -2.977184
v 0.519661 2.461165 -2.977184
v -0.221035 2.028390 -6.092568
v 0.221035 2.028390 -6.092568
v -0.221035 2.522078 -6.034168
v 0.221035 2.522078 -6.034168
v -0.091784 2.282593 -1.997269
v 0.091784 2.282593 -1.997269
v 0.091784 2.194336 -1.251182
v -0.091784 2.194336 -1.251182
v 0.372881 1.011341 1.278731
v -0.372881 1.011341 1.278731
v 0.372881 1.791173 1.370980
v -0.372881 1.791173 1.370980
v 0.091784 2.729729 -1.944375
v -0.091784 2.729729 -1.944375
v 0.091784 2.641472 -1.198289
v -0.091784 2.641472 -1.198289
v 0.224246 2.805927 -2.588518
v -0.224246 2.805927 -2.588518
v 0.224246 2.476344 0.197628
v -0.224246 2.476344 0.197628
v 0.224246 3.225042 -2.538939
v -0.224246 3.225042 -2.538939
v 0.224246 2.895460 0.247207
v -0.224246 2.895460 0.247207
v 0.162748 2.548815 0.411809
v -0.162748 2.548815 0.411809
v 0.162748 2.775016 0.438567
v -0.162748 2.775016 0.438567
v 0.103068 3.083008 -3.301652
v -0.103068 3.083008 -3.301652
v 0.103068 3.121998 -3.297040
v -0.103068 3.121998 -3.297040
v -0.243065 1.299807 -2.475497
v 0.243065 1.299807 -2.475497
v 0.243065 1.224289 -1.837099
v -0.243065 1.224289 -1.837099
v 0.104438 -0.715167 -3.146301
v -0.381692 -0.715167 -3.146301
v 0.104438 -0.790685 -2.507903
v -0.381692 -0.790685 -2.507903
v 0.170100 -0.991512 -3.388589
v -0.447354 -0.991512 -3.388589
v 0.170100 -1.087431 -2.577733
v -0.447354 -1.087431 -2.577733
v 0.110690 0.232166 -0.452080
v 0.110690 -0.120278 -0.493772
v -0.110690 0.232166 -0.452080
v -0.110690 -0.120278 -0.493772
v 0.110690 -0.030641 -1.251526
v -0.110690 -0.030641 -1.251526
v 0.110690 0.321803 -1.209834
v -0.110690 0.321803 -1.209834
v -0.110690 0.288943 -0.932047
v -0.110690 -0.063501 -0.973739
v 0.110690 -0.063501 -0.973739
v 0.110690 0.288943 -0.932047
v -0.110690 1.226064 -1.102867
v 0.110690 1.226064 -1.102867
v -0.110690 1.193204 -0.825079
v 0.110690 1.193204 -0.825079
v 0.131617 0.992526 -0.362135
v 0.131617 0.617263 -0.406526
v -0.131617 0.992526 -0.362135
v -0.131617 0.617263 -0.406526
v 0.105065 0.448503 -0.800920
v -0.105065 0.448503 -0.800920
v 0.105065 0.748060 -0.765485
v -0.105065 0.748060 -0.765485
v -0.139954 2.132740 -6.329886
v -0.139954 2.475979 -6.289283
v 0.139954 2.475979 -6.289283
v 0.139954 2.132740 -6.329886
v 0.263850 2.569892 -6.028512
v -0.263850 2.569892 -6.028512
v 0.263850 1.980576 -6.098225
v -0.263850 1.980576 -6.098225
v -0.263850 2.009702 -6.344441
v 0.263850 2.009702 -6.344441
v -0.263850 2.599018 -6.274729
v 0.263850 2.599018 -6.274729
v -0.139954 2.121125 -6.231691
v 0.139954 2.121125 -6.231691
v -0.139954 2.464364 -6.191088
v 0.139954 2.464364 -6.191088
v -0.375661 0.713751 -0.241849
v -0.375661 -0.637622 -0.401707
v -0.375661 0.637622 0.401707
v -0.375661 -0.713751 0.241849
v -0.378104 -0.637622 -0.401707
v -0.378104 -0.713751 0.241849
v -0.378104 0.637622 0.401707
v -0.378104 0.713751 -0.241849
v 0.289032 0.713751 -0.241849
v 0.289032 -0.637622 -0.401707
v 0.289032 0.637622 0.401707
v 0.289032 -0.713751 0.241849
v 0.286590 -0.637622 -0.401707
v 0.286590 -0.713751 0.241849
v 0.286590 0.637622 0.401707
v 0.286590 0.713751 -0.241849
v -0.412951 1.292809 -0.808060
v -0.507231 2.004367 -0.723888
v -0.507231 1.505818 -2.608748
v -0.507231 2.217376 -2.524575
v -0.535699 1.999575 -0.722620
v -0.441418 1.288017 -0.806793
v -0.535699 2.212585 -2.523308
v -0.535699 1.501026 -2.607481
v 0.341716 1.292438 -0.807372
v 0.498976 2.004567 -0.723132
v 0.498976 1.505618 -2.609504
v 0.498976 2.217747 -2.525264
v 0.379860 1.288090 -0.806222
v 0.537121 2.000219 -0.721982
v 0.537121 1.501270 -2.608354
v 0.537121 2.213399 -2.524114
vt 0.625000 0.750000
vt 0.625000 0.500000
vt 0.625000 0.500000
vt 0.625000 0.750000
vt 0.375000 0.250000
vt 0.625000 0.250000
vt 0.375000 0.500000
vt 0.375000 0.750000
vt 0.375000 0.750000
vt 0.375000 0.500000
vt 0.125000 0.500000
vt 0.375000 0.500000
vt 0.375000 0.750000
vt 0.125000 0.750000
vt 0.625000 0.500000
vt 0.875000 0.500000
vt 0.875000 0.750000
vt 0.625000 0.750000
vt 0.625000 0.750000
vt 0.625000 1.000000
vt 0.375000 1.000000
vt 0.125000 0.750000
vt 0.125000 0.500000
vt 0.625000 0.500000
vt 0.375000 0.250000
vt 0.375000 0.000000
vt 0.625000 0.000000
vt 0.625000 0.250000
vt 0.375000 0.250000
vt 0.375000 0.500000
vt 0.375000 0.750000
vt 0.625000 0.750000
vt 0.625000 0.750000
vt 0.625000 0.500000
vt 0.625000 0.500000
vt 0.875000 0.571832
vt 0.875000 0.571832
vt 0.875000 0.571832
vt 0.875000 0.571832
vt 0.375000 0.000000
vt 0.625000 0.000000
vt 0.875000 0.500000
vt 0.875000 0.750000
vt 0.375000 0.500000
vt 0.375000 0.500000
vt 0.875000 0.678168
vt 0.875000 0.678168
vt 0.875000 0.500000
vt 0.875000 0.750000
vt 0.875000 0.678168
vt 0.875000 0.678168
vt 0.875000 0.678168
vt 0.875000 0.678168
vt 0.625000 0.000000
vt 0.625000 0.000000
vt 0.375000 0.000000
vt 0.375000 0.000000
vt 0.625000 0.250000
vt 0.625000 0.250000
vt 0.625000 0.250000
vt 0.375000 0.250000
vt 0.375000 0.750000
vt 0.375000 0.750000
vt 0.625000 0.000000
vt 0.625000 0.000000
vt 0.625000 0.000000
vt 0.625000 0.000000
vt 0.375000 0.000000
vt 0.375000 0.000000
vt 0.375000 0.000000
vt 0.375000 0.000000
vt 0.375000 0.000000
vt 0.375000 0.000000
vt 0.625000 0.000000
vt 0.625000 0.000000
vt 0.625000 0.000000
vt 0.625000 0.000000
vt 0.625000 0.000000
vt 0.375000 0.000000
vt 0.375000 0.000000
vt 0.375000 0.000000
vt 0.625000 0.000000
vt 0.375000 0.000000
vt 0.875000 0.750000
vt 0.875000 0.750000
vt 0.875000 0.500000
vt 0.875000 0.500000
vt 0.875000 0.500000
vt 0.875000 0.500000
vt 0.875000 0.500000
vt 0.875000 0.500000
vt 0.875000 0.750000
vt 0.875000 0.750000
vt 0.875000 0.750000
vt 0.875000 0.750000
vt 0.625000 0.500000
vt 0.625000 0.750000
vt 0.875000 0.750000
vt 0.875000 0.500000
vt 0.625000 0.500000
vt 0.875000 0.500000
vt 0.875000 0.750000
vt 0.625000 0.750000
vt 0.625000 0.500000
vt 0.875000 0.500000
vt 0.625000 0.750000
vt 0.875000 0.750000
vt 0.875000 0.750000
vt 0.875000 0.500000
vt 0.875000 0.750000
vt 0.875000 0.500000
vt 0.625000 0.500000
vt 0.625000 0.750000
vt 0.875000 0.750000
vt 0.875000 0.500000
vt 0.625000 0.500000
vt 0.875000 0.500000
vt 0.875000 0.750000
vt 0.625000 0.750000
vt 0.875000 0.571832
vt 0.875000 0.571832
vt 0.875000 0.678168
vt 0.875000 0.678168
vt 0.875000 0.571832
vt 0.875000 0.571832
vt 0.875000 0.653202
vt 0.875000 0.596798
vt 0.875000 0.596798
vt 0.875000 0.653202
vt 0.875000 0.653202
vt 0.875000 0.596798
vt 0.875000 0.596798
vt 0.875000 0.653202
vt 0.625000 0.750000
vt 0.625000 0.750000
vt 0.625000 0.750000
vt 0.625000 0.750000
vt 0.625000 0.750000
vt 0.625000 0.750000
vt 0.625000 0.750000
vt 0.625000 0.750000
vt 0.375000 0.500000
vt 0.375000 0.500000
vt 0.375000 0.500000
vt 0.375000 0.500000
vt 0.375000 0.500000
vt 0.375000 0.500000
vt 0.375000 0.500000
vt 0.375000 0.500000
vt 0.375000 0.500000
vt 0.375000 0.750000
vt 0.625000 0.750000
vt 0.625000 0.500000
vt 0.375000 0.500000
vt 0.625000 0.500000
vt 0.625000 0.750000
vt 0.375000 0.750000
vt 0.375000 0.500000
vt 0.375000 0.750000
vt 0.625000 0.750000
vt 0.625000 0.500000
vt 0.375000 0.500000
vt 0.625000 0.500000
vt 0.625000 0.750000
vt 0.375000 0.750000
vn -0.9915 -0.1296 -0.0153
vn 0.0000 -0.1175 0.9931
vn -1.0000 0.0000 0.0000
vn -0.9849 0.1717 0.0203
vn 1.0000 0.0000 0.0000
vn 0.0000 0.1175 -0.9931
vn 0.0000 -0.9931 -0.1175
vn 0.9849 0.1717 0.0203
vn 0.0000 0.3475 -0.9377
vn 0.0000 0.1191 0.9929
vn 0.0000 0.9931 0.1175
vn 0.9768 -0.2127 -0.0252
vn -0.9975 -0.0682 0.0180
vn -0.9910 -0.0883 0.1001
vn 0.9931 -0.1132 0.0299
vn 0.0000 0.9418 0.3362
vn 0.9912 -0.1303 0.0242
vn 0.0000 -0.9942 0.1072
vn 0.9575 -0.0339 0.2864
vn 0.0000 0.9909 -0.1347
vn 0.0000 -0.9472 0.3205
vn -0.9575 -0.0339 0.2864
vn 0.0000 0.8463 0.5327
vn 0.9869 0.0190 -0.1603
vn -0.9869 0.0190 -0.1603
vn 0.0000 -0.9321 -0.3622
vn 0.9773 0.2104 0.0249
vn 0.9978 -0.0660 -0.0078
vn 0.0000 0.3159 -0.9488
vn -0.9978 0.0660 0.0078
vn 0.0000 -0.3159 0.9488
vn 0.0000 0.6593 -0.7519
vn -0.9773 0.2104 0.0249
vn 0.0000 -0.2291 0.9734
vn 0.0000 -0.9194 0.3934
vn 0.0000 0.8552 -0.5183
vn 0.9975 0.0084 -0.0707
vn -0.9975 0.0084 -0.0707
vn 0.9975 0.0682 -0.0180
vn 0.1593 -0.9794 -0.1242
vn -0.0639 0.1172 -0.9910
vn -0.1598 0.9803 0.1160
vn 0.0625 -0.1091 0.9921
vn -0.9931 0.1132 -0.0299
vn -0.1086 -0.9861 -0.1261
vn 0.0433 0.1174 -0.9921
vn 0.1090 0.9872 0.1168
vn -0.0423 -0.1082 0.9932
usemtl GunMateriala
s off
f 5/1/1 7/2/1 14/3/1 16/4/1
f 4/5/2 3/6/2 7/2/2 8/7/2
f 8/7/3 7/2/3 5/1/3 6/8/3
f 8/7/4 6/8/4 9/9/4 10/10/4
f 2/11/5 1/12/5 3/13/5 4/14/5
f 6/15/6 5/16/6 1/17/6 2/18/6
f 9/9/7 11/19/7 12/20/7 10/21/7
f 2/11/8 4/14/8 12/22/8 11/23/8
f 6/15/9 2/18/9 11/19/9 9/24/9
f 4/5/10 8/7/10 10/10/10 12/25/10
f 15/26/11 16/27/11 14/28/11 13/29/11
f 3/13/12 1/12/12 15/30/12 13/31/12
f 5/1/13 16/4/13 23/32/13 21/33/13
f 14/3/14 7/2/14 34/34/14 36/35/14
f 17/36/3 19/37/3 27/38/3 25/39/3
f 16/27/11 15/26/11 24/40/11 23/41/11
f 1/17/7 5/16/7 21/42/7 22/43/7
f 15/30/15 1/12/15 22/44/15 24/45/15
f 17/36/6 18/46/6 22/43/6 21/42/6
f 20/47/6 19/37/6 23/48/6 24/49/6
f 19/37/6 17/36/6 21/42/6 23/48/6
f 18/46/6 20/47/6 24/49/6 22/43/6
f 28/50/2 26/51/2 99/52/2 97/53/2
f 18/46/7 17/36/7 25/39/7 26/51/7
f 20/47/5 18/46/5 26/51/5 28/50/5
f 19/37/11 20/47/11 28/50/11 27/38/11
f 30/54/7 31/55/7 32/56/7 29/57/7
f 34/34/2 33/58/2 35/59/2 36/35/2
f 13/29/16 14/28/16 36/60/16 35/61/16
f 3/13/17 13/31/17 35/62/17 33/63/17
f 7/2/18 3/6/18 33/58/18 34/34/18
f 39/64/7 37/65/7 41/66/7 43/67/7
f 29/57/3 32/56/3 40/68/3 38/69/3
f 32/56/2 31/55/2 39/64/2 40/68/2
f 31/55/5 30/54/5 37/65/5 39/64/5
f 30/54/6 29/57/6 38/69/6 37/65/6
f 42/70/3 44/71/3 48/72/3 46/73/3
f 37/65/7 38/69/7 42/70/7 41/66/7
f 38/69/7 40/68/7 44/71/7 42/70/7
f 40/68/7 39/64/7 43/67/7 44/71/7
f 45/74/11 46/73/11 48/72/11 47/75/11
f 43/67/19 47/75/19 51/76/19 49/77/19
f 43/67/5 41/66/5 45/74/5 47/75/5
f 46/73/20 45/74/20 55/78/20 56/79/20
f 50/80/2 49/77/2 51/76/2 52/81/2
f 44/71/21 43/67/21 49/77/21 50/80/21
f 48/72/22 44/71/22 50/80/22 52/81/22
f 47/75/23 48/72/23 52/81/23 51/76/23
f 53/82/6 54/83/6 56/79/6 55/78/6
f 45/74/24 41/66/24 53/82/24 55/78/24
f 42/70/25 46/73/25 56/79/25 54/83/25
f 41/66/26 42/70/26 54/83/26 53/82/26
f 57/84/11 60/85/11 59/86/11 58/87/11
f 61/88/27 63/89/27 67/90/27 65/91/27
f 58/87/28 59/86/28 63/89/28 61/88/28
f 57/84/29 58/87/29 61/88/29 62/92/29
f 60/85/30 57/84/30 62/92/30 64/93/30
f 59/86/31 60/85/31 64/93/31 63/89/31
f 66/94/7 65/91/7 67/90/7 68/95/7
f 62/92/32 61/88/32 65/91/32 66/94/32
f 64/93/33 62/92/33 66/94/33 68/95/33
f 63/89/34 64/93/34 68/95/34 67/90/34
f 72/96/2 70/97/2 69/98/2 71/99/2
f 74/100/6 76/101/6 75/102/6 73/103/6
f 78/104/3 77/105/3 76/101/3 74/100/3
f 79/106/7 78/104/7 74/100/7 73/103/7
f 77/105/2 80/107/2 84/108/2 83/109/2
f 80/107/5 79/106/5 73/103/5 75/102/5
f 69/98/5 70/97/5 79/106/5 80/107/5
f 71/99/11 69/98/11 80/107/11 77/105/11
f 70/97/7 72/96/7 78/104/7 79/106/7
f 72/96/3 71/99/3 77/105/3 78/104/3
f 83/109/11 84/108/11 82/110/11 81/111/11
f 80/107/5 75/102/5 82/110/5 84/108/5
f 75/102/6 76/101/6 81/111/6 82/110/6
f 76/101/3 77/105/3 83/109/3 81/111/3
f 88/112/2 86/113/2 85/114/2 87/115/2
f 90/116/6 92/117/6 91/118/6 89/119/6
f 86/113/35 88/112/35 90/116/35 89/119/35
f 87/115/36 85/114/36 91/118/36 92/117/36
f 85/114/37 86/113/37 89/119/37 91/118/37
f 88/112/38 87/115/38 92/117/38 90/116/38
f 99/52/7 100/120/7 101/121/7 102/122/7
f 97/53/5 99/52/5 102/122/5 104/123/5
f 98/124/11 97/53/11 104/123/11 103/125/11
f 96/126/11 93/127/11 105/128/11 106/129/11
f 26/51/2 25/39/2 100/120/2 99/52/2
f 25/39/2 27/38/2 98/124/2 100/120/2
f 27/38/2 28/50/2 97/53/2 98/124/2
f 100/120/3 98/124/3 103/125/3 101/121/3
f 93/127/6 96/126/6 102/122/6 101/121/6
f 95/130/6 94/131/6 103/125/6 104/123/6
f 94/131/6 93/127/6 101/121/6 103/125/6
f 96/126/6 95/130/6 104/123/6 102/122/6
f 106/129/6 105/128/6 107/132/6 108/133/6
f 95/130/3 96/126/3 106/129/3 108/133/3
f 94/131/7 95/130/7 108/133/7 107/132/7
f 93/127/5 94/131/5 107/132/5 105/128/5
f 125/134/39 127/135/39 128/136/39 126/137/39
f 127/135/40 125/134/40 130/138/40 132/139/40
f 128/136/41 127/135/41 132/139/41 131/140/41
f 126/137/42 128/136/42 131/140/42 129/141/42
f 125/134/43 126/137/43 129/141/43 130/138/43
f 134/142/44 136/143/44 135/144/44 133/145/44
f 133/145/45 135/144/45 139/146/45 137/147/45
f 135/144/46 136/143/46 140/148/46 139/146/46
f 136/143/47 134/142/47 138/149/47 140/148/47
f 134/142/48 133/145/48 137/147/48 138/149/48
usemtl GunWood
f 112/150/5 110/151/5 109/152/5 111/153/5
f 114/154/3 115/155/3 116/156/3 113/157/3
f 109/152/6 110/151/6 113/157/6 116/156/6
f 110/151/7 112/150/7 114/154/7 113/157/7
f 111/153/11 109/152/11 116/156/11 115/155/11
f 112/150/2 111/153/2 115/155/2 114/154/2
f 120/158/5 118/159/5 117/160/5 119/161/5
f 122/162/3 123/163/3 124/164/3 121/165/3
f 117/160/6 118/159/6 121/165/6 124/164/6
f 118/159/7 120/158/7 122/162/7 121/165/7
f 119/161/11 117/160/11 124/164/11 123/163/11
f 120/158/2 119/161/2 123/163/2 122/162/2
f 130/138/13 129/141/13 131/140/13 132/139/13
f 138/149/15 137/147/15 139/146/15 140/148/15
o Hand1_Cube.001
v 0.668165 -0.387067 -1.689583
v 0.694556 0.421084 -1.400686
v 0.375010 -0.144126 -3.063201
v 0.418072 1.174498 -2.591820
v 1.114336 -0.379861 -1.750499
v 1.140727 0.428290 -1.461602
v 1.020786 -0.133696 -3.151370
v 1.063848 1.184927 -2.679989
v 0.678933 -0.057321 -1.571706
v 0.392580 0.393906 -2.870866
v 1.038357 0.404336 -2.959035
v 1.125104 -0.050115 -1.632622
v 0.685180 0.133971 -1.503323
v 0.402773 0.706028 -2.759289
v 1.048549 0.716458 -2.847457
v 1.131351 0.141177 -1.564239
v 0.382891 0.097199 -2.976933
v 1.028667 0.107629 -3.065101
v 1.119166 -0.231959 -1.697627
v 0.672995 -0.239165 -1.636711
v 0.419798 1.278258 -3.021904
v 0.943635 1.286719 -3.093424
v 0.407388 0.898247 -3.157749
v 0.931226 0.906708 -3.229269
v 0.401642 0.797925 -3.082987
v 0.392830 0.528067 -3.179455
v 0.959975 0.806943 -3.159217
v 0.951163 0.537085 -3.255686
v 0.369664 0.468038 -3.087299
v 1.000069 0.478220 -3.173369
v 0.360206 0.178394 -3.190841
v 0.990611 0.188576 -3.276911
v 0.373923 0.131299 -3.077685
v 0.366170 -0.106110 -3.162554
v 1.001467 -0.095850 -3.249292
v 1.009220 0.141559 -3.164423
v 0.835573 -0.759722 2.391332
v 0.847830 -0.384372 2.525513
v 1.533613 -1.236000 2.119471
v 1.527299 -1.429357 2.050350
v 0.813328 -1.440888 2.147830
v 1.561801 -0.372841 2.428034
v 0.819643 -1.247531 2.216951
v 0.827406 -1.009802 2.301934
v 1.549543 -0.748191 2.293853
v 1.541377 -0.998271 2.204455
v -0.016878 1.169846 -2.623459
v -0.030432 0.754821 -2.771822
v -0.015349 1.261770 -3.004477
v -0.026343 0.925111 -3.124825
v -0.079802 0.708857 -2.759022
v -0.089252 0.419474 -2.862471
v -0.080850 0.794060 -3.059138
v -0.089021 0.543861 -3.148579
v -0.023545 0.368088 -2.862899
v -0.031119 0.136153 -2.945811
v -0.041459 0.426038 -3.032084
v -0.048853 0.199623 -3.113023
v -0.003772 0.061427 -2.975412
v -0.008884 -0.095112 -3.031372
v -0.009589 0.083546 -3.040767
v -0.014619 -0.070453 -3.095819
vt 0.562500 0.000000
vt 0.625000 0.000000
vt 0.625000 0.250000
vt 0.562500 0.250000
vt 0.562500 0.500000
vt 0.562500 0.250000
vt 0.562500 0.500000
vt 0.625000 0.500000
vt 0.625000 0.750000
vt 0.562500 0.750000
vt 0.125000 0.750000
vt 0.375000 0.750000
vt 0.375000 0.750000
vt 0.125000 0.750000
vt 0.125000 0.500000
vt 0.375000 0.500000
vt 0.875000 0.500000
vt 0.875000 0.750000
vt 0.500000 0.000000
vt 0.500000 0.000000
vt 0.562500 0.000000
vt 0.437500 0.500000
vt 0.500000 0.500000
vt 0.500000 0.750000
vt 0.437500 0.750000
vt 0.500000 0.250000
vt 0.500000 0.250000
vt 0.500000 0.250000
vt 0.500000 0.250000
vt 0.437500 0.000000
vt 0.437500 0.250000
vt 0.500000 0.750000
vt 0.437500 0.750000
vt 0.562500 0.500000
vt 0.562500 0.250000
vt 0.375000 0.000000
vt 0.375000 0.250000
vt 0.375000 0.500000
vt 0.437500 0.500000
vt 0.625000 0.750000
vt 0.562500 0.750000
vt 0.625000 0.250000
vt 0.625000 0.500000
vt 0.875000 0.500000
vt 0.625000 0.250000
vt 0.562500 0.250000
vt 0.500000 0.250000
vt 0.500000 0.500000
vt 0.500000 0.250000
vt 0.500000 0.250000
vt 0.437500 0.250000
vt 0.500000 0.500000
vt 0.437500 0.500000
vt 0.375000 0.250000
vt 0.437500 0.250000
vt 0.125000 0.500000
vt 0.437500 0.250000
vt 0.375000 0.250000
vt 0.625000 1.000000
vt 0.562500 1.000000
vt 0.500000 1.000000
vt 0.437500 1.000000
vt 0.375000 1.000000
vt 0.375000 0.000000
vt 0.437500 0.000000
vt 0.875000 0.750000
vt 0.625000 0.000000
vt 0.625000 0.250000
vt 0.562500 0.250000
vt 0.875000 0.500000
vt 0.875000 0.500000
vt 0.562500 0.250000
vt 0.562500 0.250000
vt 0.437500 0.250000
vt 0.437500 0.250000
vt 0.437500 0.250000
vt 0.375000 0.250000
vt 0.125000 0.500000
vt 0.125000 0.500000
vn -0.9786 -0.0402 0.2017
vn -0.0448 -0.8996 -0.4345
vn 0.9976 -0.0082 -0.0681
vn -0.0205 -0.9643 -0.2640
vn -0.0077 -0.9850 -0.1726
vn 0.0578 0.8497 0.5240
vn -0.9989 0.0174 0.0426
vn -0.0522 0.9430 0.3285
vn 0.9943 0.0056 -0.1065
vn 0.0217 0.9618 0.2730
vn -0.9786 -0.0402 0.2018
vn 0.9829 0.0327 -0.1813
vn -0.1327 0.3375 -0.9319
vn 0.9624 0.0631 -0.2643
vn 0.0163 0.9720 0.2346
vn -0.0648 -0.3340 0.9403
vn -0.0555 -0.9156 -0.3981
vn -0.0396 -0.9163 -0.3984
vn 0.9646 0.0602 -0.2566
vn -0.0329 -0.9356 -0.3516
vn 0.0286 0.9466 0.3212
vn 0.9856 0.0274 -0.1666
vn -0.0333 -0.9344 -0.3546
vn 0.0281 0.9476 0.3182
vn 0.0349 -0.3374 0.9407
vn 0.1327 -0.3375 0.9319
vn 0.0116 0.9796 0.2005
vn -0.9995 0.0314 0.0036
vn -0.0274 0.9718 0.2343
vn -0.0504 0.3376 -0.9399
vn -0.0885 -0.8967 -0.4336
vn -0.9995 0.0285 0.0116
vn -0.0015 -0.3366 0.9417
vn -0.0492 0.3376 -0.9400
vn 0.0058 0.9620 0.2731
vn -0.9946 -0.0046 0.1037
vn 0.0389 -0.3375 0.9405
vn -0.1135 -0.9328 -0.3420
vn -0.1591 0.3369 -0.9280
vn -0.9960 0.0007 0.0889
vn -0.0858 0.9414 0.3262
vn -0.1469 -0.9281 -0.3421
vn -0.1317 0.3375 -0.9321
usemtl HandMaterial
s off
f 153/166/49 142/167/49 144/168/49 154/169/49
f 155/170/50 154/169/50 163/171/50 164/172/50
f 155/170/51 148/173/51 146/174/51 156/175/51
f 141/176/52 145/177/52 180/178/52 181/179/52
f 143/180/53 147/181/53 145/177/53 141/176/53
f 148/173/54 144/182/54 142/183/54 146/174/54
f 153/166/55 149/184/55 184/185/55 177/186/55
f 158/187/51 151/188/51 152/189/51 159/190/51
f 150/191/56 169/192/56 197/193/56 195/194/56
f 160/195/49 149/184/49 150/191/49 157/196/49
f 159/190/57 152/189/57 186/197/57 179/198/57
f 151/188/51 155/170/51 156/175/51 152/189/51
f 154/169/58 155/170/58 167/199/58 165/200/58
f 149/184/59 153/166/59 154/169/59 150/191/59
f 141/201/59 160/195/59 157/196/59 143/202/59
f 158/187/60 147/181/60 175/203/60 176/204/60
f 147/181/51 158/187/51 159/190/51 145/177/51
f 156/175/57 146/174/57 182/205/57 185/206/57
f 163/171/61 161/207/61 162/208/61 164/172/61
f 148/173/62 155/170/62 164/172/62 162/208/62
f 144/182/63 148/173/63 162/208/63 161/209/63
f 154/169/64 144/168/64 187/210/64 188/211/64
f 166/212/61 165/200/61 167/199/61 168/213/61
f 166/212/65 150/191/65 192/214/65 194/215/65
f 151/188/66 150/191/66 166/212/66 168/213/66
f 155/170/67 151/188/67 168/213/67 167/199/67
f 171/216/61 169/192/61 170/217/61 172/218/61
f 158/187/68 157/196/68 171/216/68 172/218/68
f 150/191/69 151/188/69 170/217/69 169/192/69
f 151/188/70 158/187/70 172/218/70 170/217/70
f 174/219/61 173/220/61 176/204/61 175/203/61
f 147/181/71 143/180/71 174/221/71 175/203/71
f 157/196/72 158/187/72 176/204/72 173/220/72
f 143/202/73 157/196/73 199/222/73 200/223/73
f 185/206/74 182/205/74 178/224/74 177/225/74
f 179/198/74 186/197/74 184/226/74 183/227/74
f 186/197/74 185/206/74 177/225/74 184/226/74
f 180/178/74 179/198/74 183/227/74 181/228/74
f 160/195/55 141/201/55 181/229/55 183/230/55
f 146/174/75 142/183/75 178/231/75 182/205/75
f 142/167/55 153/166/55 177/186/55 178/232/55
f 152/189/57 156/175/57 185/206/57 186/197/57
f 149/184/55 160/195/55 183/230/55 184/185/55
f 145/177/57 159/190/57 179/198/57 180/178/57
f 188/211/76 187/210/76 189/233/76 190/234/76
f 144/182/77 161/209/77 189/235/77 187/236/77
f 161/207/78 163/171/78 190/234/78 189/233/78
f 163/171/79 154/169/79 188/211/79 190/234/79
f 192/214/80 191/237/80 193/238/80 194/215/80
f 150/191/81 154/169/81 191/237/81 192/214/81
f 165/200/82 166/212/82 194/215/82 193/238/82
f 154/169/83 165/200/83 193/238/83 191/237/83
f 196/239/84 195/194/84 197/193/84 198/240/84
f 157/196/85 150/191/85 195/194/85 196/239/85
f 171/216/86 157/196/86 196/239/86 198/240/86
f 169/192/87 171/216/87 198/240/87 197/193/87
f 200/223/88 199/222/88 201/241/88 202/242/88
f 157/196/89 173/220/89 201/241/89 199/222/89
f 174/221/90 143/180/90 200/243/90 202/244/90
f 173/220/91 174/219/91 202/242/91 201/241/91
o Hand2_Cube.002
v -1.067736 -0.524803 0.537872
v -1.067736 0.327894 0.638740
v -1.168478 -0.601062 -0.881925
v -1.168478 0.790245 -0.717342
v -0.617369 -0.524803 0.537872
v -0.617369 0.327894 0.638740
v -0.516627 -0.601062 -0.881925
v -0.516627 0.790245 -0.717342
v -1.067736 -0.176881 0.579029
v -1.168478 -0.033374 -0.814771
v -0.516627 -0.033374 -0.814771
v -0.617369 -0.176881 0.579029
v -1.067736 0.024955 0.602905
v -1.168478 0.295953 -0.775814
v -0.516627 0.295953 -0.775814
v -0.617369 0.024955 0.602905
v -1.168478 -0.346435 -0.851804
v -0.516627 -0.346435 -0.851804
v -0.617369 -0.368749 0.556332
v -1.067736 -0.368749 0.556332
v -1.106935 0.794749 -1.155444
v -0.578170 0.794749 -1.155444
v -1.106935 0.393791 -1.202874
v -0.578170 0.393791 -1.202874
v -1.124344 0.312755 -1.108976
v -1.124344 0.028022 -1.142658
v -0.560760 0.312755 -1.108976
v -0.560760 0.028022 -1.142658
v -1.160720 -0.010109 -1.043381
v -0.524385 -0.010109 -1.043381
v -1.160720 -0.315718 -1.079533
v -0.524385 -0.315718 -1.079533
v -1.163189 -0.335979 -0.957903
v -1.163189 -0.586474 -0.987535
v -0.521916 -0.586474 -0.987535
v -0.521916 -0.335979 -0.957903
v -1.202896 -0.173546 2.724755
v -1.202896 0.222494 2.771604
v -0.482209 -0.688244 2.663870
v -0.482209 -0.892258 2.639736
v -1.202896 -0.892258 2.639736
v -0.482209 0.222494 2.771604
v -1.202896 -0.688244 2.663870
v -1.202896 -0.437411 2.693542
v -0.482209 -0.173546 2.724755
v -0.482209 -0.437411 2.693542
v 0.107785 0.743518 -0.826958
v 0.107785 0.366965 -0.871502
v 0.060902 0.746950 -1.160705
v 0.060902 0.441499 -1.196838
v 0.065617 0.288257 -0.874215
v 0.065617 -0.002931 -0.908661
v 0.026595 0.303113 -1.168795
v 0.026595 0.051354 -1.198576
v 0.048786 -0.056582 -0.857350
v 0.048786 -0.313932 -0.887793
v 0.042408 -0.037457 -1.045278
v 0.042408 -0.288682 -1.074996
v -0.516627 -0.346435 -0.851804
v -0.516627 -0.601062 -0.881925
v -0.521916 -0.335979 -0.957903
v -0.521916 -0.586474 -0.987535
v -0.049685 -0.374409 -0.885254
v -0.049685 -0.566055 -0.907924
v -0.053666 -0.366539 -0.965110
v -0.053666 -0.555076 -0.987412
vt 0.562500 0.000000
vt 0.625000 0.000000
vt 0.625000 0.250000
vt 0.562500 0.250000
vt 0.562500 0.500000
vt 0.562500 0.250000
vt 0.562500 0.500000
vt 0.625000 0.500000
vt 0.625000 0.750000
vt 0.562500 0.750000
vt 0.125000 0.750000
vt 0.375000 0.750000
vt 0.375000 0.750000
vt 0.125000 0.750000
vt 0.125000 0.500000
vt 0.375000 0.500000
vt 0.875000 0.500000
vt 0.875000 0.750000
vt 0.500000 0.000000
vt 0.500000 0.000000
vt 0.562500 0.000000
vt 0.437500 0.500000
vt 0.500000 0.500000
vt 0.500000 0.750000
vt 0.437500 0.750000
vt 0.437500 0.250000
vt 0.500000 0.250000
vt 0.500000 0.250000
vt 0.437500 0.250000
vt 0.437500 0.000000
vt 0.500000 0.750000
vt 0.437500 0.750000
vt 0.562500 0.500000
vt 0.562500 0.250000
vt 0.375000 0.000000
vt 0.375000 0.250000
vt 0.375000 0.500000
vt 0.437500 0.500000
vt 0.625000 0.750000
vt 0.562500 0.750000
vt 0.625000 0.250000
vt 0.625000 0.500000
vt 0.562500 0.500000
vt 0.562500 0.500000
vt 0.875000 0.500000
vt 0.500000 0.250000
vt 0.500000 0.500000
vt 0.562500 0.500000
vt 0.562500 0.500000
vt 0.500000 0.500000
vt 0.437500 0.500000
vt 0.500000 0.500000
vt 0.500000 0.500000
vt 0.375000 0.250000
vt 0.437500 0.250000
vt 0.437500 0.500000
vt 0.375000 0.500000
vt 0.125000 0.500000
vt 0.625000 1.000000
vt 0.562500 1.000000
vt 0.500000 1.000000
vt 0.437500 1.000000
vt 0.375000 1.000000
vt 0.375000 0.000000
vt 0.437500 0.000000
vt 0.875000 0.750000
vt 0.625000 0.000000
vt 0.625000 0.500000
vt 0.625000 0.500000
vt 0.500000 0.500000
vt 0.500000 0.500000
vt 0.437500 0.500000
vt 0.437500 0.500000
vt 0.375000 0.500000
vt 0.375000 0.500000
vt 0.375000 0.500000
vt 0.437500 0.500000
vt 0.437500 0.500000
vt 0.437500 0.500000
vn -0.9974 -0.0084 0.0712
vn 0.0000 -0.9747 -0.2233
vn 0.9974 -0.0084 0.0712
vn 0.0000 -0.9851 -0.1722
vn 0.0000 -0.9986 0.0536
vn 0.0000 0.9465 0.3227
vn -0.9980 0.0074 -0.0629
vn -0.9994 0.0040 -0.0335
vn 0.9980 0.0074 -0.0629
vn 0.0000 0.9987 0.0504
vn 0.0000 0.0000 1.0000
vn 0.0000 0.1175 -0.9931
vn 0.0746 -0.9696 -0.2329
vn 0.0000 0.9999 0.0103
vn -0.9902 0.0164 -0.1389
vn -0.9913 0.0154 -0.1305
vn 0.0000 -0.9829 -0.1840
vn 0.0212 0.9986 0.0476
vn 0.0000 -0.9910 -0.1337
vn 0.0000 0.9949 0.1012
vn 0.0483 0.9939 0.0995
vn 0.0000 -0.9906 -0.1368
vn 0.0000 0.9952 0.0981
vn -0.9988 0.0058 -0.0492
vn 0.0000 -0.1175 0.9931
vn 0.0000 0.9988 0.0494
vn 0.9902 0.0164 -0.1389
vn 0.1633 -0.1159 0.9797
vn 0.0746 0.9972 -0.0002
vn 0.0006 0.1175 -0.9931
vn 0.9913 0.0154 -0.1305
vn 0.0212 -0.9822 -0.1868
vn 0.1640 -0.1159 0.9796
vn -0.0987 0.1169 -0.9882
vn 0.9994 0.0040 -0.0335
vn 0.0698 -0.1172 0.9907
vn 0.0483 -0.9897 -0.1351
vn 0.0023 0.1175 -0.9931
vn 0.0663 -0.9880 -0.1398
vn 0.9988 0.0058 -0.0492
vn 0.0640 -0.1172 0.9910
vn 0.0663 0.9933 0.0946
vn -0.0076 0.1175 -0.9930
usemtl HandMaterial
s off
f 215/245/92 204/246/92 206/247/92 216/248/92
f 217/249/93 216/248/93 225/250/93 226/251/93
f 217/249/94 210/252/94 208/253/94 218/254/94
f 203/255/95 207/256/95 242/257/95 243/258/95
f 205/259/96 209/260/96 207/256/96 203/255/96
f 210/252/97 206/261/97 204/262/97 208/253/97
f 215/245/98 211/263/98 246/264/98 239/265/98
f 220/266/94 213/267/94 214/268/94 221/269/94
f 219/270/99 212/271/99 231/272/99 233/273/99
f 222/274/92 211/263/92 212/271/92 219/270/92
f 221/269/100 214/268/100 248/275/100 241/276/100
f 213/267/94 217/249/94 218/254/94 214/268/94
f 216/248/101 217/249/101 229/277/101 227/278/101
f 211/263/92 215/245/92 216/248/92 212/271/92
f 203/279/92 222/274/92 219/270/92 205/280/92
f 220/266/102 209/260/102 262/281/102 261/282/102
f 209/260/94 220/266/94 221/269/94 207/256/94
f 218/254/100 208/253/100 244/283/100 247/284/100
f 225/250/103 223/285/103 224/286/103 226/251/103
f 217/249/104 226/251/104 252/287/104 250/288/104
f 206/261/105 210/252/105 224/286/105 223/289/105
f 216/248/106 206/247/106 223/285/106 225/250/106
f 228/290/103 227/278/103 229/277/103 230/291/103
f 212/271/107 216/248/107 227/278/107 228/290/107
f 213/267/108 212/271/108 228/290/108 230/291/108
f 229/277/109 217/249/109 253/292/109 255/293/109
f 233/273/103 231/272/103 232/294/103 234/295/103
f 220/266/110 219/270/110 233/273/110 234/295/110
f 212/271/111 213/267/111 232/294/111 231/272/111
f 232/294/112 213/267/112 257/296/112 259/297/112
f 236/298/103 235/299/103 238/300/103 237/301/103
f 209/260/113 205/259/113 236/302/113 237/301/113
f 219/270/114 220/266/114 238/300/114 235/299/114
f 205/280/115 219/270/115 235/299/115 236/298/115
f 247/284/116 244/283/116 240/303/116 239/304/116
f 241/276/116 248/275/116 246/305/116 245/306/116
f 248/275/116 247/284/116 239/304/116 246/305/116
f 242/257/116 241/276/116 245/306/116 243/307/116
f 222/274/98 203/279/98 243/308/98 245/309/98
f 208/253/117 204/262/117 240/310/117 244/283/117
f 204/246/98 215/245/98 239/265/98 240/311/98
f 214/268/100 218/254/100 247/284/100 248/275/100
f 211/263/98 222/274/98 245/309/98 246/264/98
f 207/256/100 221/269/100 241/276/100 242/257/100
f 249/312/118 250/288/118 252/287/118 251/313/118
f 210/252/119 217/249/119 250/288/119 249/312/119
f 224/286/120 210/252/120 249/312/120 251/313/120
f 226/251/121 224/286/121 251/313/121 252/287/121
f 253/292/122 254/314/122 256/315/122 255/293/122
f 213/267/123 230/291/123 256/315/123 254/314/123
f 217/249/124 213/267/124 254/314/124 253/292/124
f 230/291/125 229/277/125 255/293/125 256/315/125
f 257/296/126 258/316/126 260/317/126 259/297/126
f 213/267/127 220/266/127 258/316/127 257/296/127
f 220/266/128 234/295/128 260/317/128 258/316/128
f 234/295/129 232/294/129 259/297/129 260/317/129
f 262/281/130 264/318/130 268/319/130 266/320/130
f 209/260/102 237/301/102 264/318/102 262/281/102
f 237/301/102 238/300/102 263/321/102 264/318/102
f 238/300/102 220/266/102 261/282/102 263/321/102
f 265/322/131 266/320/131 268/319/131 267/323/131
f 261/282/132 262/281/132 266/320/132 265/322/132
f 263/321/133 261/282/133 265/322/133 267/323/133
f 264/318/134 263/321/134 267/323/134 268/319/134
